# Blender 4.1.0
# www.blender.org
mtllib Teaincup.mtl
o Plane.016
v -0.699068 0.500950 -1.237189
v -0.699068 0.500950 -1.282079
v -0.743958 0.500950 -1.237189
v -0.743958 0.500950 -1.282079
v -0.732736 0.500950 -1.230286
v -0.721513 0.500950 -1.228246
v -0.710290 0.500950 -1.230019
v -0.710290 0.500950 -1.289249
v -0.721513 0.500950 -1.291022
v -0.732736 0.500950 -1.288982
v -0.692180 0.500950 -1.248411
v -0.690407 0.500950 -1.259634
v -0.692397 0.500950 -1.270857
v -0.750629 0.500950 -1.270857
v -0.752619 0.500950 -1.259634
v -0.750846 0.500950 -1.248411
v -0.706955 0.500950 -1.274441
v -0.705960 0.500950 -1.259634
v -0.706846 0.500950 -1.244827
v -0.721513 0.500950 -1.275328
v -0.721513 0.500950 -1.259634
v -0.721513 0.500950 -1.243940
v -0.736071 0.500950 -1.274308
v -0.737066 0.500950 -1.259634
v -0.736180 0.500950 -1.244960
vn -0.0000 1.0000 -0.0000
vt 0.750000 0.750000
vt 1.000000 0.750000
vt 1.000000 1.000000
vt 0.750000 1.000000
vt 0.750000 0.000000
vt 1.000000 0.000000
vt 1.000000 0.250000
vt 0.750000 0.250000
vt 1.000000 0.500000
vt 0.750000 0.500000
vt 0.000000 0.500000
vt 0.250000 0.500000
vt 0.250000 0.750000
vt 0.000000 0.750000
vt 0.500000 0.500000
vt 0.500000 0.750000
vt 0.000000 0.250000
vt 0.250000 0.250000
vt 0.500000 0.250000
vt 0.000000 0.000000
vt 0.250000 0.000000
vt 0.500000 0.000000
vt 0.250000 1.000000
vt 0.000000 1.000000
vt 0.500000 1.000000
s 0
usemtl Material
f 23/1/1 10/2/1 4/3/1 14/4/1
f 13/5/1 2/6/1 8/7/1 17/8/1
f 17/8/1 8/7/1 9/9/1 20/10/1
f 20/10/1 9/9/1 10/2/1 23/1/1
f 6/11/1 22/12/1 25/13/1 5/14/1
f 22/12/1 21/15/1 24/16/1 25/13/1
f 21/15/1 20/10/1 23/1/1 24/16/1
f 7/17/1 19/18/1 22/12/1 6/11/1
f 19/18/1 18/19/1 21/15/1 22/12/1
f 18/19/1 17/8/1 20/10/1 21/15/1
f 1/20/1 11/21/1 19/18/1 7/17/1
f 11/21/1 12/22/1 18/19/1 19/18/1
f 12/22/1 13/5/1 17/8/1 18/19/1
f 5/14/1 25/13/1 16/23/1 3/24/1
f 25/13/1 24/16/1 15/25/1 16/23/1
f 24/16/1 23/1/1 14/4/1 15/25/1
o Plane.017
v -0.445506 0.498026 -1.476487
v -0.489915 0.498026 -1.483044
v -0.452063 0.498026 -1.432078
v -0.496472 0.498026 -1.438635
v -0.443594 0.498026 -1.442172
v -0.439937 0.498026 -1.452976
v -0.440052 0.498026 -1.464338
v -0.498647 0.498026 -1.472989
v -0.502040 0.498026 -1.462146
v -0.501661 0.498026 -1.450746
v -0.455602 0.498026 -1.484940
v -0.466445 0.498026 -1.488333
v -0.477838 0.498026 -1.488004
v -0.486344 0.498026 -1.430397
v -0.475532 0.498026 -1.426789
v -0.464171 0.498026 -1.426903
v -0.483511 0.498026 -1.474126
v -0.468717 0.498026 -1.472947
v -0.454198 0.498026 -1.469908
v -0.486514 0.498026 -1.459854
v -0.470989 0.498026 -1.457561
v -0.455463 0.498026 -1.455269
v -0.487632 0.498026 -1.445303
v -0.473260 0.498026 -1.442175
v -0.458614 0.498026 -1.440909
vn -0.0000 1.0000 -0.0000
vt 0.750000 0.750000
vt 1.000000 0.750000
vt 1.000000 1.000000
vt 0.750000 1.000000
vt 0.750000 0.000000
vt 1.000000 0.000000
vt 1.000000 0.250000
vt 0.750000 0.250000
vt 1.000000 0.500000
vt 0.750000 0.500000
vt 0.000000 0.500000
vt 0.250000 0.500000
vt 0.250000 0.750000
vt 0.000000 0.750000
vt 0.500000 0.500000
vt 0.500000 0.750000
vt 0.000000 0.250000
vt 0.250000 0.250000
vt 0.500000 0.250000
vt 0.000000 0.000000
vt 0.250000 0.000000
vt 0.500000 0.000000
vt 0.250000 1.000000
vt 0.000000 1.000000
vt 0.500000 1.000000
s 0
f 48/26/2 35/27/2 29/28/2 39/29/2
f 38/30/2 27/31/2 33/32/2 42/33/2
f 42/33/2 33/32/2 34/34/2 45/35/2
f 45/35/2 34/34/2 35/27/2 48/26/2
f 31/36/2 47/37/2 50/38/2 30/39/2
f 47/37/2 46/40/2 49/41/2 50/38/2
f 46/40/2 45/35/2 48/26/2 49/41/2
f 32/42/2 44/43/2 47/37/2 31/36/2
f 44/43/2 43/44/2 46/40/2 47/37/2
f 43/44/2 42/33/2 45/35/2 46/40/2
f 26/45/2 36/46/2 44/43/2 32/42/2
f 36/46/2 37/47/2 43/44/2 44/43/2
f 37/47/2 38/30/2 42/33/2 43/44/2
f 30/39/2 50/38/2 41/48/2 28/49/2
f 50/38/2 49/41/2 40/50/2 41/48/2
f 49/41/2 48/26/2 39/29/2 40/50/2
o Plane.018
v -0.180509 0.500950 -1.149259
v -0.183135 0.500950 -1.104446
v -0.135695 0.500950 -1.146633
v -0.138321 0.500950 -1.101820
v -0.146495 0.500950 -1.154181
v -0.157579 0.500950 -1.156874
v -0.168886 0.500950 -1.155760
v -0.172351 0.500950 -1.096632
v -0.161251 0.500950 -1.094205
v -0.149928 0.500950 -1.095585
v -0.188041 0.500950 -1.138459
v -0.190468 0.500950 -1.127359
v -0.189138 0.500950 -1.116039
v -0.131005 0.500950 -1.112633
v -0.128362 0.500950 -1.123720
v -0.129476 0.500950 -1.135027
v -0.174814 0.500950 -1.111609
v -0.174941 0.500950 -1.126449
v -0.173190 0.500950 -1.141179
v -0.160333 0.500950 -1.109872
v -0.159415 0.500950 -1.125539
v -0.158497 0.500950 -1.141207
v -0.145740 0.500950 -1.110039
v -0.143889 0.500950 -1.124629
v -0.143915 0.500950 -1.139330
vn -0.0000 1.0000 -0.0000
vt 0.750000 0.750000
vt 1.000000 0.750000
vt 1.000000 1.000000
vt 0.750000 1.000000
vt 0.750000 0.000000
vt 1.000000 0.000000
vt 1.000000 0.250000
vt 0.750000 0.250000
vt 1.000000 0.500000
vt 0.750000 0.500000
vt 0.000000 0.500000
vt 0.250000 0.500000
vt 0.250000 0.750000
vt 0.000000 0.750000
vt 0.500000 0.500000
vt 0.500000 0.750000
vt 0.000000 0.250000
vt 0.250000 0.250000
vt 0.500000 0.250000
vt 0.000000 0.000000
vt 0.250000 0.000000
vt 0.500000 0.000000
vt 0.250000 1.000000
vt 0.000000 1.000000
vt 0.500000 1.000000
s 0
f 73/51/3 60/52/3 54/53/3 64/54/3
f 63/55/3 52/56/3 58/57/3 67/58/3
f 67/58/3 58/57/3 59/59/3 70/60/3
f 70/60/3 59/59/3 60/52/3 73/51/3
f 56/61/3 72/62/3 75/63/3 55/64/3
f 72/62/3 71/65/3 74/66/3 75/63/3
f 71/65/3 70/60/3 73/51/3 74/66/3
f 57/67/3 69/68/3 72/62/3 56/61/3
f 69/68/3 68/69/3 71/65/3 72/62/3
f 68/69/3 67/58/3 70/60/3 71/65/3
f 51/70/3 61/71/3 69/68/3 57/67/3
f 61/71/3 62/72/3 68/69/3 69/68/3
f 62/72/3 63/55/3 67/58/3 68/69/3
f 55/64/3 75/63/3 66/73/3 53/74/3
f 75/63/3 74/66/3 65/75/3 66/73/3
f 74/66/3 73/51/3 64/54/3 65/75/3
o Plane.019
v -0.479991 0.500950 -0.909500
v -0.436040 0.500950 -0.900361
v -0.470852 0.500950 -0.953450
v -0.426902 0.500950 -0.944312
v -0.479895 0.500950 -0.943868
v -0.484177 0.500950 -0.933296
v -0.484726 0.500950 -0.921947
v -0.426736 0.500950 -0.909889
v -0.422715 0.500950 -0.920516
v -0.422428 0.500950 -0.931919
v -0.470405 0.500950 -0.900472
v -0.459779 0.500950 -0.896451
v -0.448386 0.500950 -0.896115
v -0.436531 0.500950 -0.953128
v -0.447114 0.500950 -0.957360
v -0.458462 0.500950 -0.957909
v -0.441913 0.500950 -0.909638
v -0.456613 0.500950 -0.911679
v -0.470929 0.500950 -0.915561
v -0.438081 0.500950 -0.923711
v -0.453446 0.500950 -0.926906
v -0.468812 0.500950 -0.930101
v -0.436116 0.500950 -0.938172
v -0.450280 0.500950 -0.942133
v -0.464827 0.500950 -0.944253
vn -0.0000 1.0000 -0.0000
vt 0.750000 0.750000
vt 1.000000 0.750000
vt 1.000000 1.000000
vt 0.750000 1.000000
vt 0.750000 0.000000
vt 1.000000 0.000000
vt 1.000000 0.250000
vt 0.750000 0.250000
vt 1.000000 0.500000
vt 0.750000 0.500000
vt 0.000000 0.500000
vt 0.250000 0.500000
vt 0.250000 0.750000
vt 0.000000 0.750000
vt 0.500000 0.500000
vt 0.500000 0.750000
vt 0.000000 0.250000
vt 0.250000 0.250000
vt 0.500000 0.250000
vt 0.000000 0.000000
vt 0.250000 0.000000
vt 0.500000 0.000000
vt 0.250000 1.000000
vt 0.000000 1.000000
vt 0.500000 1.000000
s 0
f 98/76/4 85/77/4 79/78/4 89/79/4
f 88/80/4 77/81/4 83/82/4 92/83/4
f 92/83/4 83/82/4 84/84/4 95/85/4
f 95/85/4 84/84/4 85/77/4 98/76/4
f 81/86/4 97/87/4 100/88/4 80/89/4
f 97/87/4 96/90/4 99/91/4 100/88/4
f 96/90/4 95/85/4 98/76/4 99/91/4
f 82/92/4 94/93/4 97/87/4 81/86/4
f 94/93/4 93/94/4 96/90/4 97/87/4
f 93/94/4 92/83/4 95/85/4 96/90/4
f 76/95/4 86/96/4 94/93/4 82/92/4
f 86/96/4 87/97/4 93/94/4 94/93/4
f 87/97/4 88/80/4 92/83/4 93/94/4
f 80/89/4 100/88/4 91/98/4 78/99/4
f 100/88/4 99/91/4 90/100/4 91/98/4
f 99/91/4 98/76/4 89/79/4 90/100/4
o Plane.020
v 0.981680 0.500950 -0.909500
v 1.025630 0.500950 -0.900361
v 0.990818 0.500950 -0.953450
v 1.034769 0.500950 -0.944312
v 0.981775 0.500950 -0.943868
v 0.977493 0.500950 -0.933296
v 0.976945 0.500950 -0.921947
v 1.034934 0.500950 -0.909889
v 1.038955 0.500950 -0.920516
v 1.039243 0.500950 -0.931919
v 0.991265 0.500950 -0.900472
v 1.001892 0.500950 -0.896451
v 1.013284 0.500950 -0.896115
v 1.025139 0.500950 -0.953128
v 1.014557 0.500950 -0.957360
v 1.003208 0.500950 -0.957909
v 1.019758 0.500950 -0.909638
v 1.005058 0.500950 -0.911679
v 0.990741 0.500950 -0.915561
v 1.023590 0.500950 -0.923711
v 1.008224 0.500950 -0.926906
v 0.992859 0.500950 -0.930101
v 1.025555 0.500950 -0.938172
v 1.011390 0.500950 -0.942133
v 0.996843 0.500950 -0.944253
vn -0.0000 1.0000 -0.0000
vt 0.750000 0.750000
vt 1.000000 0.750000
vt 1.000000 1.000000
vt 0.750000 1.000000
vt 0.750000 0.000000
vt 1.000000 0.000000
vt 1.000000 0.250000
vt 0.750000 0.250000
vt 1.000000 0.500000
vt 0.750000 0.500000
vt 0.000000 0.500000
vt 0.250000 0.500000
vt 0.250000 0.750000
vt 0.000000 0.750000
vt 0.500000 0.500000
vt 0.500000 0.750000
vt 0.000000 0.250000
vt 0.250000 0.250000
vt 0.500000 0.250000
vt 0.000000 0.000000
vt 0.250000 0.000000
vt 0.500000 0.000000
vt 0.250000 1.000000
vt 0.000000 1.000000
vt 0.500000 1.000000
s 0
f 123/101/5 110/102/5 104/103/5 114/104/5
f 113/105/5 102/106/5 108/107/5 117/108/5
f 117/108/5 108/107/5 109/109/5 120/110/5
f 120/110/5 109/109/5 110/102/5 123/101/5
f 106/111/5 122/112/5 125/113/5 105/114/5
f 122/112/5 121/115/5 124/116/5 125/113/5
f 121/115/5 120/110/5 123/101/5 124/116/5
f 107/117/5 119/118/5 122/112/5 106/111/5
f 119/118/5 118/119/5 121/115/5 122/112/5
f 118/119/5 117/108/5 120/110/5 121/115/5
f 101/120/5 111/121/5 119/118/5 107/117/5
f 111/121/5 112/122/5 118/119/5 119/118/5
f 112/122/5 113/105/5 117/108/5 118/119/5
f 105/114/5 125/113/5 116/123/5 103/124/5
f 125/113/5 124/116/5 115/125/5 116/123/5
f 124/116/5 123/101/5 114/104/5 115/125/5
o Plane.021
v 1.281162 0.500950 -1.149259
v 1.278536 0.500950 -1.104446
v 1.325975 0.500950 -1.146633
v 1.323349 0.500950 -1.101820
v 1.315176 0.500950 -1.154181
v 1.304092 0.500950 -1.156874
v 1.292785 0.500950 -1.155760
v 1.289320 0.500950 -1.096632
v 1.300419 0.500950 -1.094205
v 1.311742 0.500950 -1.095585
v 1.273629 0.500950 -1.138459
v 1.271203 0.500950 -1.127359
v 1.272533 0.500950 -1.116039
v 1.330665 0.500950 -1.112633
v 1.333308 0.500950 -1.123720
v 1.332195 0.500950 -1.135027
v 1.286856 0.500950 -1.111609
v 1.286729 0.500950 -1.126449
v 1.288480 0.500950 -1.141179
v 1.301337 0.500950 -1.109872
v 1.302256 0.500950 -1.125539
v 1.303174 0.500950 -1.141207
v 1.315930 0.500950 -1.110039
v 1.317782 0.500950 -1.124629
v 1.317755 0.500950 -1.139330
vn -0.0000 1.0000 -0.0000
vt 0.750000 0.750000
vt 1.000000 0.750000
vt 1.000000 1.000000
vt 0.750000 1.000000
vt 0.750000 0.000000
vt 1.000000 0.000000
vt 1.000000 0.250000
vt 0.750000 0.250000
vt 1.000000 0.500000
vt 0.750000 0.500000
vt 0.000000 0.500000
vt 0.250000 0.500000
vt 0.250000 0.750000
vt 0.000000 0.750000
vt 0.500000 0.500000
vt 0.500000 0.750000
vt 0.000000 0.250000
vt 0.250000 0.250000
vt 0.500000 0.250000
vt 0.000000 0.000000
vt 0.250000 0.000000
vt 0.500000 0.000000
vt 0.250000 1.000000
vt 0.000000 1.000000
vt 0.500000 1.000000
s 0
f 148/126/6 135/127/6 129/128/6 139/129/6
f 138/130/6 127/131/6 133/132/6 142/133/6
f 142/133/6 133/132/6 134/134/6 145/135/6
f 145/135/6 134/134/6 135/127/6 148/126/6
f 131/136/6 147/137/6 150/138/6 130/139/6
f 147/137/6 146/140/6 149/141/6 150/138/6
f 146/140/6 145/135/6 148/126/6 149/141/6
f 132/142/6 144/143/6 147/137/6 131/136/6
f 144/143/6 143/144/6 146/140/6 147/137/6
f 143/144/6 142/133/6 145/135/6 146/140/6
f 126/145/6 136/146/6 144/143/6 132/142/6
f 136/146/6 137/147/6 143/144/6 144/143/6
f 137/147/6 138/130/6 142/133/6 143/144/6
f 130/139/6 150/138/6 141/148/6 128/149/6
f 150/138/6 149/141/6 140/150/6 141/148/6
f 149/141/6 148/126/6 139/129/6 140/150/6
o Plane.022
v 1.016165 0.498026 -1.476487
v 0.971756 0.498026 -1.483044
v 1.009608 0.498026 -1.432078
v 0.965199 0.498026 -1.438635
v 1.018076 0.498026 -1.442172
v 1.021734 0.498026 -1.452976
v 1.021618 0.498026 -1.464338
v 0.963024 0.498026 -1.472989
v 0.959630 0.498026 -1.462146
v 0.960009 0.498026 -1.450746
v 1.006069 0.498026 -1.484940
v 0.995225 0.498026 -1.488333
v 0.983833 0.498026 -1.488004
v 0.975327 0.498026 -1.430397
v 0.986138 0.498026 -1.426789
v 0.997500 0.498026 -1.426903
v 0.978160 0.498026 -1.474126
v 0.992954 0.498026 -1.472947
v 1.007473 0.498026 -1.469908
v 0.975156 0.498026 -1.459854
v 0.990682 0.498026 -1.457561
v 1.006208 0.498026 -1.455269
v 0.974039 0.498026 -1.445303
v 0.988410 0.498026 -1.442175
v 1.003056 0.498026 -1.440909
vn -0.0000 1.0000 -0.0000
vt 0.750000 0.750000
vt 1.000000 0.750000
vt 1.000000 1.000000
vt 0.750000 1.000000
vt 0.750000 0.000000
vt 1.000000 0.000000
vt 1.000000 0.250000
vt 0.750000 0.250000
vt 1.000000 0.500000
vt 0.750000 0.500000
vt 0.000000 0.500000
vt 0.250000 0.500000
vt 0.250000 0.750000
vt 0.000000 0.750000
vt 0.500000 0.500000
vt 0.500000 0.750000
vt 0.000000 0.250000
vt 0.250000 0.250000
vt 0.500000 0.250000
vt 0.000000 0.000000
vt 0.250000 0.000000
vt 0.500000 0.000000
vt 0.250000 1.000000
vt 0.000000 1.000000
vt 0.500000 1.000000
s 0
f 173/151/7 160/152/7 154/153/7 164/154/7
f 163/155/7 152/156/7 158/157/7 167/158/7
f 167/158/7 158/157/7 159/159/7 170/160/7
f 170/160/7 159/159/7 160/152/7 173/151/7
f 156/161/7 172/162/7 175/163/7 155/164/7
f 172/162/7 171/165/7 174/166/7 175/163/7
f 171/165/7 170/160/7 173/151/7 174/166/7
f 157/167/7 169/168/7 172/162/7 156/161/7
f 169/168/7 168/169/7 171/165/7 172/162/7
f 168/169/7 167/158/7 170/160/7 171/165/7
f 151/170/7 161/171/7 169/168/7 157/167/7
f 161/171/7 162/172/7 168/169/7 169/168/7
f 162/172/7 163/155/7 167/158/7 168/169/7
f 155/164/7 175/163/7 166/173/7 153/174/7
f 175/163/7 174/166/7 165/175/7 166/173/7
f 174/166/7 173/151/7 164/154/7 165/175/7
o Plane.023
v 0.762603 0.500950 -1.237189
v 0.762603 0.500950 -1.282079
v 0.717712 0.500950 -1.237189
v 0.717712 0.500950 -1.282079
v 0.728935 0.500950 -1.230286
v 0.740158 0.500950 -1.228246
v 0.751380 0.500950 -1.230019
v 0.751380 0.500950 -1.289249
v 0.740158 0.500950 -1.291022
v 0.728935 0.500950 -1.288982
v 0.769491 0.500950 -1.248411
v 0.771263 0.500950 -1.259634
v 0.769274 0.500950 -1.270857
v 0.711042 0.500950 -1.270857
v 0.709052 0.500950 -1.259634
v 0.710824 0.500950 -1.248411
v 0.754716 0.500950 -1.274441
v 0.755710 0.500950 -1.259634
v 0.754824 0.500950 -1.244827
v 0.740158 0.500950 -1.275328
v 0.740158 0.500950 -1.259634
v 0.740158 0.500950 -1.243940
v 0.725600 0.500950 -1.274308
v 0.724605 0.500950 -1.259634
v 0.725491 0.500950 -1.244960
vn -0.0000 1.0000 -0.0000
vt 0.750000 0.750000
vt 1.000000 0.750000
vt 1.000000 1.000000
vt 0.750000 1.000000
vt 0.750000 0.000000
vt 1.000000 0.000000
vt 1.000000 0.250000
vt 0.750000 0.250000
vt 1.000000 0.500000
vt 0.750000 0.500000
vt 0.000000 0.500000
vt 0.250000 0.500000
vt 0.250000 0.750000
vt 0.000000 0.750000
vt 0.500000 0.500000
vt 0.500000 0.750000
vt 0.000000 0.250000
vt 0.250000 0.250000
vt 0.500000 0.250000
vt 0.000000 0.000000
vt 0.250000 0.000000
vt 0.500000 0.000000
vt 0.250000 1.000000
vt 0.000000 1.000000
vt 0.500000 1.000000
s 0
f 198/176/8 185/177/8 179/178/8 189/179/8
f 188/180/8 177/181/8 183/182/8 192/183/8
f 192/183/8 183/182/8 184/184/8 195/185/8
f 195/185/8 184/184/8 185/177/8 198/176/8
f 181/186/8 197/187/8 200/188/8 180/189/8
f 197/187/8 196/190/8 199/191/8 200/188/8
f 196/190/8 195/185/8 198/176/8 199/191/8
f 182/192/8 194/193/8 197/187/8 181/186/8
f 194/193/8 193/194/8 196/190/8 197/187/8
f 193/194/8 192/183/8 195/185/8 196/190/8
f 176/195/8 186/196/8 194/193/8 182/192/8
f 186/196/8 187/197/8 193/194/8 194/193/8
f 187/197/8 188/180/8 192/183/8 193/194/8
f 180/189/8 200/188/8 191/198/8 178/199/8
f 200/188/8 199/191/8 190/200/8 191/198/8
f 199/191/8 198/176/8 189/179/8 190/200/8
