# Blender 4.1.1
# www.blender.org
mtllib Windowtable.mtl
o Table
v -2.476366 -0.008274 0.572397
v -2.474786 0.578152 0.567900
v -2.476366 -0.008274 -1.787076
v -2.474786 0.578152 -1.782579
v -1.656193 -0.008274 0.582547
v -1.656193 0.579283 0.572397
v -1.656193 -0.008274 -1.797226
v -1.656193 0.579283 -1.787076
v -2.467758 -0.008274 0.547890
v -2.467758 0.573117 0.547890
v -2.467758 -0.008274 -1.762569
v -2.467758 0.573117 -1.762569
v -1.656193 -0.008274 0.547890
v -1.656193 0.573117 0.547890
v -1.656193 -0.008274 -1.762569
v -1.656193 0.573117 -1.762569
vn -1.0000 0.0027 -0.0000
vn -0.0089 0.0125 -0.9999
vn -0.0089 0.0125 0.9999
vn -0.0014 1.0000 -0.0000
vn 1.0000 -0.0000 -0.0000
vn -0.0000 -0.0000 1.0000
vn -0.0000 -0.0000 -1.0000
vn -0.0000 -1.0000 -0.0000
vt 0.375000 0.000000
vt 0.625000 0.000000
vt 0.625000 0.250000
vt 0.375000 0.250000
vt 0.625000 0.500000
vt 0.375000 0.500000
vt 0.375000 0.750000
vt 0.625000 0.750000
vt 0.625000 1.000000
vt 0.375000 1.000000
vt 0.875000 0.500000
vt 0.875000 0.750000
s 0
usemtl Material.012
f 1/1/1 2/2/1 4/3/1 3/4/1
f 3/4/2 4/3/2 8/5/2 7/6/2
f 5/7/3 6/8/3 2/9/3 1/10/3
f 8/5/4 4/11/4 2/12/4 6/8/4
f 9/1/5 11/4/5 12/3/5 10/2/5
f 11/4/6 15/6/6 16/5/6 12/3/6
f 13/7/7 9/10/7 10/9/7 14/8/7
f 16/5/8 14/8/8 10/12/8 12/11/8
f 1/1/8 3/4/8 11/4/8 9/1/8
f 3/4/8 7/6/8 15/6/8 11/4/8
f 7/6/5 8/5/5 16/5/5 15/6/5
f 8/5/5 6/8/5 14/8/5 16/5/5
f 6/8/5 5/7/5 13/7/5 14/8/5
f 5/7/8 1/10/8 9/10/8 13/7/8
o TableTop
v -2.467758 0.593466 0.590995
v -2.467758 0.593466 -1.805674
v -1.656193 0.593466 0.590995
v -1.656193 0.593466 -1.805674
v -2.467758 0.573117 0.590995
v -2.467758 0.573117 -1.805674
v -1.656193 0.573117 0.590995
v -1.656193 0.573117 -1.805674
vn -0.0000 1.0000 -0.0000
vn -0.0000 -1.0000 -0.0000
vn -1.0000 -0.0000 -0.0000
vn -0.0000 -0.0000 -1.0000
vn 1.0000 -0.0000 -0.0000
vn -0.0000 -0.0000 1.0000
vt 0.625000 0.500000
vt 0.875000 0.500000
vt 0.875000 0.750000
vt 0.625000 0.750000
s 0
usemtl Material.013
f 20/13/9 18/14/9 17/15/9 19/16/9
f 24/13/10 23/16/10 21/15/10 22/14/10
f 17/15/11 18/14/11 22/14/11 21/15/11
f 18/14/12 20/13/12 24/13/12 22/14/12
f 20/13/13 19/16/13 23/16/13 24/13/13
f 19/16/14 17/15/14 21/15/14 23/16/14
